<svg viewBox="0 0 16 16" xmlns="http://www.w3.org/2000/svg" fill-rule="evenodd" clip-rule="evenodd" stroke-linejoin="round" stroke-miterlimit="1.414"><path d="M15.698 7.287L8.708.302a1.034 1.034 0 0 0-1.46 0L5.8 1.752l1.84 1.84a1.225 1.225 0 0 1 1.552 1.561l1.774 1.773a1.225 1.225 0 0 1 1.268 2.025 1.228 1.228 0 1 1-2.005-1.33L8.57 5.97v4.352c.117.057.227.134.325.23.475.48.475 1.255 0 1.734-.48.48-1.26.48-1.74 0s-.48-1.254 0-1.733c.12-.12.257-.21.403-.27V5.89a1.225 1.225 0 0 1-.664-1.607l-1.81-1.816L.29 7.254c-.4.404-.4 1.056 0 1.46l6.992 6.984a1.03 1.03 0 0 0 1.458 0l6.958-6.953a1.03 1.03 0 0 0 0-1.458" fill-rule="nonzero"/></svg>