<svg xmlns="http://www.w3.org/2000/svg" viewBox="0 0 33.192 33.192" width="512" height="512"><path d="M31.802 32.153c-4.046-1.609-7.638-5.072-8.233-9.551-.033-.249.164-.59.42-.757l.467-.304c.811-.504 1.568-1.19 2.342-1.829.727-.726 1.473-1.425 2.102-2.254 2.627-3.467 4.531-8.01 4.268-12.455a12.856 12.856 0 0 0-.546-3.048 114.44 114.44 0 0 0-.152-.543c-.084-.3-.243-.31-.356-.024l-.205.519a7.34 7.34 0 0 1-.53 1.125c-1.435 2.524-5.435 7.506-8.929 6.581-.846-.224-1.383-1.532-1.9-2.181a20.226 20.226 0 0 0-5.515-4.816C11.297.415 6.164-.744 1.917.567l-.543.152L.832.87l1.037.41a7.55 7.55 0 0 1 1.125.531c1.831 1.04 3.429 2.304 4.657 4.042 1.04 1.473 3.147 4.526 1.043 5.833C3.702 14.787-.241 21.171.012 27.182l.044 1.038c.012.651.112 1.243.198 1.755.069.51.165.943.275 1.297l.152.543c.084.301.243.311.356.024l.205-.519c.117-.324.294-.707.532-1.125.221-.42.461-.881.804-1.344 1.118-1.51 2.474-2.874 4.093-3.844.855-.514 3.88-2.198 4.675-.979 3.096 4.75 7.824 8.033 13.441 8.955.422.069.832.123 1.241.133l1.117.061 1.039-.044c.65-.013 1.242-.112 1.754-.198a7.94 7.94 0 0 0 1.297-.275l.543-.151c.297-.084.308-.242.024-.356zm-15.23-12.288a3.244 3.244 0 0 1-3.234-3.088c-.003-.055-.016-.108-.016-.164a3.25 3.25 0 0 1 3.25-3.251c1.74 0 3.148 1.37 3.236 3.088.002.055.016.108.016.164a3.25 3.25 0 0 1-3.252 3.251z" fill="#6639b7"/></svg>