<svg xmlns="http://www.w3.org/2000/svg" viewBox="0 0 512 512"><path fill="#bdc3c7" d="M406.069 105.931H300.138V0z"/><path fill="#5889c4" d="M44.138 406.069H512V194.207H44.138z"/><path d="M114.759 379.586c-24.338 0-44.138-19.8-44.138-44.138 0-4.873 3.955-8.828 8.828-8.828 4.873 0 8.828 3.955 8.828 8.828 0 14.601 11.882 26.483 26.483 26.483s26.483-11.882 26.483-26.483-11.882-26.483-26.483-26.483c-24.338 0-44.138-19.8-44.138-44.138 0-24.338 19.8-44.138 44.138-44.138s44.138 19.8 44.138 44.138c0 4.873-3.955 8.828-8.828 8.828-4.873 0-8.828-3.955-8.828-8.828 0-14.601-11.882-26.483-26.483-26.483s-26.483 11.882-26.483 26.483 11.882 26.483 26.483 26.483c24.338 0 44.138 19.8 44.138 44.138s-19.801 44.138-44.138 44.138" fill="#fff"/><path fill="#ecf0f1" d="M44.138 406.069V194.207h361.931v-88.276H300.138V0H0v512h406.069V406.069z"/><g fill="#fff"><path d="M335.448 379.586c-24.338 0-44.138-19.8-44.138-44.138 0-4.873 3.955-8.828 8.828-8.828 4.873 0 8.828 3.955 8.828 8.828 0 14.601 11.882 26.483 26.483 26.483s26.483-11.882 26.483-26.483-11.882-26.483-26.483-26.483c-24.338 0-44.138-19.8-44.138-44.138 0-24.338 19.8-44.138 44.138-44.138s44.138 19.8 44.138 44.138c0 4.873-3.955 8.828-8.828 8.828-4.873 0-8.828-3.955-8.828-8.828 0-14.601-11.882-26.483-26.483-26.483s-26.483 11.882-26.483 26.483 11.882 26.483 26.483 26.483c24.338 0 44.138 19.8 44.138 44.138s-19.8 44.138-44.138 44.138m105.931 0c-24.338 0-44.138-19.8-44.138-44.138 0-4.873 3.955-8.828 8.828-8.828a8.826 8.826 0 0 1 8.828 8.828c0 14.601 11.882 26.483 26.483 26.483s26.483-11.882 26.483-26.483-11.882-26.483-26.483-26.483c-24.338 0-44.138-19.8-44.138-44.138 0-24.338 19.8-44.138 44.138-44.138s44.138 19.8 44.138 44.138a8.826 8.826 0 0 1-8.828 8.828 8.826 8.826 0 0 1-8.828-8.828c0-14.601-11.882-26.483-26.483-26.483s-26.483 11.882-26.483 26.483 11.882 26.483 26.483 26.483c24.338 0 44.138 19.8 44.138 44.138s-19.8 44.138-44.138 44.138m-167.724.005a8.844 8.844 0 0 1-8.271-5.729l-43.935-117.177-36.467 116.71c-1.465 4.652-6.453 7.212-11.061 5.791a8.839 8.839 0 0 1-5.8-11.061l44.138-141.241a8.831 8.831 0 0 1 8.183-6.188c3.778-.168 7.186 2.198 8.519 5.72l52.966 141.241c1.704 4.573-.609 9.657-5.173 11.37a8.923 8.923 0 0 1-3.099.564"/><path d="M253.793 326.621h-60.69c-4.873 0-8.828-3.955-8.828-8.828 0-4.873 3.955-8.828 8.828-8.828h60.69c4.873 0 8.828 3.955 8.828 8.828 0 4.873-3.955 8.828-8.828 8.828"/></g></svg>