<svg xmlns="http://www.w3.org/2000/svg" width="512" height="512" viewBox="0 0 34.641 34.641"><path d="M23.994 20.416h2.319v14.225H3.728V20.416h2.318v11.92h17.946c.002-3.977.002-7.943.002-11.92zM17.389 4.498l7.707 11.3 2.414-1.647-7.707-11.299-2.414 1.646zm7.233 11.698l-11.78-6.948-1.486 2.517 11.782 6.948 1.484-2.517zM28.571 0c-.965.168-1.91.333-2.879.5.78 4.499 1.562 8.981 2.34 13.474l2.88-.5C30.131 8.97 29.352 4.487 28.571 0zm-5.674 19.539c-4.41-1.188-8.803-2.367-13.208-3.552l-.76 2.822c4.409 1.186 8.806 2.366 13.209 3.551.257-.948.507-1.881.759-2.821zm-1.239 7.565H8.004v2.905h13.654v-2.905zM22 23.349c-4.547-.418-9.078-.838-13.619-1.254l-.271 2.91 13.62 1.254.27-2.91z" fill="#FFF"/></svg>